<svg width="287" height="362" viewBox="0 0 287 362" fill="none" xmlns="http://www.w3.org/2000/svg">
<defs>
  <linearGradient id="blueGreen" x1="0" y1="0" x2="1" y2="1">
    <stop offset="0%" stop-color="#0D47A1"/>
    <stop offset="100%" stop-color="#0A6E55"/>
  </linearGradient>
  <linearGradient id="doorPink" x1="0.5" y1="0" x2="0.5" y2="1">
    <stop offset="0%" stop-color="#D60F80" stop-opacity="0.9"/>
    <stop offset="100%" stop-color="#D59F80"/>
  </linearGradient>
</defs>
<!-- Outer pin shape -->
<path d="M236.184 217.122C225.132 240.174 175.373 267.7 143.262 265.7C111.15 267.7 61.392 240.174 50.3399 217.122C31.2878 196.07 25.7618 170.762 27.7618 141.2C27.7618 111.637 44.7097 83.0521 65.7617 62C56.7617 51 67.2617 33 65.7617 28.5C62.2617 30 47.5758 42.1588 47.5758 42.1588C20.0331 67.5979 0.261749 101.755 0.261749 144.63C-1.73825 173.213 7.60706 204.298 32.2977 237.883C53.9883 271.469 97.3097 322.341 143.262 361.5C189.214 322.341 232.535 271.469 254.226 237.883C278.916 204.298 288.262 175 286.262 144.63C283.444 101.848 266.49 67.5979 238.948 42.1588C211.405 16.7196 179.51 4 143.262 4C124.671 4 107.182 8.299 100.762 10.4485C106.262 30.5 93.2617 35.5 96.6227 42.1588C105.262 37 127.961 33.7 143.262 33.7C172.824 33.7 201.132 44.2261 222.184 65.2781C243.236 86.3302 258.762 111.637 258.762 141.2C260.762 170.762 255.236 196.07 236.184 217.122Z" fill="url(#blueGreen)"/>
<!-- Inner house/door frame -->
<path d="M99.7617 136L100.298 98L143.262 62L248.262 151.5L218.262 151C218.428 172.5 222.184 235.5 143.262 235.5C58 241 67.781 151.5 67.781 151.5L68.647 70.5L93.7617 57V151.5C93.7617 151.5 84.7547 209 143.262 209C205.975 209 191.762 160 191.762 136L143.262 96L99.7617 136Z" fill="url(#blueGreen)"/>
<!-- Small triangle -->
<path d="M60.7617 151.5V131.5L37.7617 151.5H60.7617Z" fill="url(#blueGreen)"/>
<!-- Flame/smoke accent -->
<path d="M88.2617 0C99.2617 21.5 52.7617 32 80.2617 60.5C71.3243 45.5 106.762 26 88.2617 0Z" fill="url(#blueGreen)"/>
<!-- Door arch -->
<path d="M159 180.5H126V156.5C126 156.5 126 141 142.5 141C159 141 159 156.5 159 156.5V180.5Z" fill="url(#doorPink)"/>
</svg>
