<svg width="338" height="101" viewBox="0 0 338 101" fill="none" xmlns="http://www.w3.org/2000/svg">
<path d="M20.5566 95.0508H20.8125V74.4434H23.9316V100.625H20.8633L6.59668 80.0684H6.34082V100.625H3.1709V74.4434H6.23828L20.5566 95.0508ZM68.5264 100.625H65.2021L62.5693 93.21H51.9824L49.3496 100.625H46.0264L55.6396 74.4434H58.9121L68.5264 100.625ZM103.286 96.1758H103.593L112.49 74.4434H116.274V100.625H113.309V80.7334H113.053L104.871 100.625H102.008L93.8252 80.7334H93.5703V100.625H90.6045V74.4434H94.3877L103.286 96.1758ZM153.313 96.1758H153.62L162.518 74.4434H166.302V100.625H163.336V80.7334H163.08L154.898 100.625H152.035L143.853 80.7334H143.598V100.625H140.632V74.4434H144.415L153.313 96.1758ZM206.46 77.2559H193.829V86.1025H205.642V88.915H193.829V97.8125H206.664V100.625H190.659V74.4434H206.46V77.2559ZM239.021 74.4434C241.066 74.4434 242.745 74.7925 244.058 75.4912C245.37 76.1816 246.342 77.1325 246.973 78.3428C247.603 79.5529 247.919 80.9292 247.919 82.4717C247.919 84.0142 247.603 85.3821 246.973 86.5752C246.342 87.7684 245.374 88.7059 244.07 89.3877C243.745 89.5557 243.397 89.7021 243.026 89.8281L248.941 100.625H245.26L239.738 90.3838C239.521 90.3922 239.299 90.3975 239.072 90.3975H233.345V100.625H230.175V74.4434H239.021ZM274.372 86.1025H288.332V74.4434H291.503V100.625H288.332V88.915H274.372V100.625H271.202V74.4434H274.372V86.1025ZM336.101 100.625H332.776L330.144 93.21H319.557L316.924 100.625H313.601L323.214 74.4434H326.486L336.101 100.625ZM52.9805 90.3975H61.5713L57.3779 78.585H57.1738L52.9805 90.3975ZM320.555 90.3975H329.146L324.952 78.585H324.748L320.555 90.3975ZM233.345 87.5342H238.97C240.367 87.5342 241.492 87.3299 242.345 86.9209C243.206 86.5118 243.827 85.9316 244.211 85.1816C244.603 84.4231 244.8 83.5199 244.8 82.4717C244.8 81.4234 244.603 80.5067 244.211 79.7227C243.819 78.9388 243.193 78.3333 242.332 77.9072C241.471 77.4727 240.333 77.2559 238.919 77.2559H233.345V87.5342ZM290.656 26.1875C293.135 26.1875 295.302 26.6562 297.156 27.5938C299.281 28.6562 300.531 29.7708 300.906 30.9375C301.177 31.7917 301.312 32.5417 301.312 33.1875C301.312 34.125 301 35 300.375 35.8125C298.771 37.8542 297.052 39.6771 295.219 41.2812C295.865 41.9271 296.896 42.7083 298.312 43.625C299.583 44.4583 301.385 44.875 303.719 44.875H319.938C325.875 44.875 329.302 44.4167 330.219 43.5C331.24 42.4792 331.75 40.8646 331.75 38.6562V31.875H337.5V38.6562C337.5 42.5521 336.542 45.6458 334.625 47.9375C333.125 49.7292 328.802 50.625 321.656 50.625H303.031C298.823 50.625 294.698 48.6979 290.656 44.8438C286.615 48.6979 282.49 50.625 278.281 50.625H222.594C218.969 50.625 216.823 50.0833 216.156 49C214.135 51.125 211.677 52.1875 208.781 52.1875C204.323 52.1875 200.948 51.1667 198.656 49.125C197.323 50.125 195.573 50.625 193.406 50.625H146.719C144.01 50.625 142.135 49.9792 141.094 48.6875C139.906 53.9583 136.219 58.2396 130.031 61.5312C124.115 64.6771 116.156 66.25 106.156 66.25V60.5C115.427 60.5 122.344 59.1667 126.906 56.5C132.219 53.3958 135.229 49.7917 135.938 45.6875C136.146 44.4792 136.25 43.125 136.25 41.625C136.25 39 135.698 36.2708 134.594 33.4375H140.344C140.969 35.7708 141.312 37.25 141.375 37.875C141.583 40.0208 142.448 41.8958 143.969 43.5C144.844 44.4167 146.333 44.875 148.438 44.875H192.031C193.115 44.875 194.115 44.5 195.031 43.75C195.927 43.0208 196.427 42.1458 196.531 41.125C196.948 37.3542 198.562 34.6354 201.375 32.9688C203.333 31.8021 205.281 31.2188 207.219 31.2188C208.719 31.2188 210.156 31.5208 211.531 32.125C215.552 33.8542 217.74 36.4583 218.094 39.9375C218.198 40.9583 218.781 42.1146 219.844 43.4062C220.635 44.3854 222.125 44.875 224.312 44.875H277.594C279.823 44.875 281.625 44.4583 283 43.625C284.229 42.875 285.26 42.0938 286.094 41.2812C284.073 39.5104 282.354 37.6875 280.938 35.8125C280.312 35 280 34.125 280 33.1875C280 32.5417 280.135 31.7917 280.406 30.9375C280.74 29.7917 281.99 28.6771 284.156 27.5938C286.01 26.6562 288.177 26.1875 290.656 26.1875ZM5.75 38.6562C5.75 40.8646 6.27083 42.4792 7.3125 43.5C8.22917 44.4167 10.5625 44.875 14.3125 44.875H69.7812V45.0312H73.5312C74.6146 45.0312 75.9688 44.9167 77.5938 44.6875C76.6562 42.5 76.0312 40.6875 75.7188 39.25C75.3438 37.625 75.1562 36.1458 75.1562 34.8125C75.1562 33.0625 75.625 31.3229 76.5625 29.5938C77.5625 27.7188 78.8646 26.875 80.4688 27.0625C79.5521 26.25 78.25 25.6979 76.5625 25.4062V19.625C81.125 21.0208 85.6979 23.5938 90.2812 27.3438C95.7188 31.8021 99.0521 36.2917 100.281 40.8125C100.573 41.8958 100.719 43.0312 100.719 44.2188C100.719 46.3646 100.302 48.0729 99.4688 49.3438C97.9271 51.6979 95.3333 52.875 91.6875 52.875C88.9583 52.875 85.9896 51.75 82.7812 49.5C80.2812 50.3542 77.5104 50.7812 74.4688 50.7812H69V50.625H12.5625C7.6875 50.625 4.41667 49.6667 2.75 47.75C0.916667 45.6458 0 42.7396 0 39.0312V2H5.75V38.6562ZM91.5312 34.9062C91.6562 35.6771 91.7188 36.4688 91.7188 37.2812C91.7188 40.1562 90.6979 42.7812 88.6562 45.1562C88.4062 45.4479 88.1042 45.7917 87.75 46.1875C88.8333 47.1458 89.8854 47.625 90.9062 47.625C93.5312 47.625 95.0104 46.9271 95.3438 45.5312C95.4896 44.9062 95.5625 44.25 95.5625 43.5625C95.5625 42.3125 95.2188 40.875 94.5312 39.25C93.9271 37.8125 92.9271 36.3646 91.5312 34.9062ZM207.219 37.375C206.115 37.375 205.135 37.6562 204.281 38.2188C203.323 38.8438 202.646 40.1979 202.25 42.2812C202.104 43.0521 201.927 43.7604 201.719 44.4062C203.01 45.8438 205.312 46.5625 208.625 46.5625C209.604 46.5625 210.292 46.375 210.688 46C211.771 44.8958 212.312 43.625 212.312 42.1875C212.312 41.7917 212.26 41.4062 212.156 41.0312C211.698 39.1979 210.865 38.1042 209.656 37.75C208.844 37.5 208.031 37.375 207.219 37.375ZM83.875 31.1562C82.5208 31.1562 81.6042 31.625 81.125 32.5625C80.6667 33.4583 80.4375 34.2708 80.4375 35C80.4375 35.625 80.5104 36.3229 80.6562 37.0938C81.0938 39.5521 82.0208 41.3125 83.4375 42.375C84.1875 41.8125 84.9167 40.8646 85.625 39.5312C86.4375 38.0312 86.8438 36.6458 86.8438 35.375C86.8438 34.4167 86.6875 33.5521 86.375 32.7812C85.9167 31.6979 85.0833 31.1562 83.875 31.1562ZM290.656 31.9688C290.115 31.9688 289.531 32.0417 288.906 32.1875C287.927 32.4375 287.438 32.8958 287.438 33.5625C287.438 34.1667 288.51 35.4583 290.656 37.4375C292.802 35.4583 293.875 34.1667 293.875 33.5625C293.875 32.8958 293.385 32.4375 292.406 32.1875C291.781 32.0417 291.198 31.9688 290.656 31.9688ZM336.812 24.0625H332.125V19.375H336.812V24.0625ZM216.594 0C216.906 1.52083 217.031 3.48958 216.969 5.90625C216.906 8.67708 216.625 10.625 216.125 11.75C215.333 13.5833 214 14.6146 212.125 14.8438C210.646 15.0312 209.583 14.7812 208.938 14.0938C208.375 13.4688 207.969 12.6042 207.719 11.5C207.406 13.1042 206.906 14.3125 206.219 15.125C205.031 16.5417 203.719 17.2604 202.281 17.2812C200.635 17.3229 199.385 16.6667 198.531 15.3125C197.823 14.2708 197.469 12.5938 197.469 10.2812C197.469 8.01042 197.635 5.85417 197.969 3.8125H201C200.75 6.41667 200.635 8.30208 200.656 9.46875C200.719 11.2188 200.979 12.4479 201.438 13.1562C201.833 13.7396 202.552 13.7917 203.594 13.3125C204.865 12.7708 205.542 10.75 205.625 7.25C205.667 5.54167 205.688 3.76042 205.688 1.90625H208.688C208.688 2.65625 208.719 3.59375 208.781 4.71875C209.073 8.82292 210 10.8542 211.562 10.8125C213.042 10.7917 213.781 8.97917 213.781 5.375C213.781 2.97917 213.646 1.1875 213.375 0H216.594Z" fill="#1a202c"/>
</svg>
